<svg id="visual" viewBox="0 0 900 200" width="900" height="200" xmlns="http://www.w3.org/2000/svg" xmlns:xlink="http://www.w3.org/1999/xlink" version="1.1"><path d="M0 106L21.5 112.2C43 118.3 86 130.7 128.8 130.3C171.7 130 214.3 117 257.2 110.2C300 103.3 343 102.7 385.8 103.3C428.7 104 471.3 106 514.2 111.5C557 117 600 126 642.8 131.8C685.7 137.7 728.3 140.3 771.2 143.5C814 146.7 857 150.3 878.5 152.2L900 154L900 201L878.5 201C857 201 814 201 771.2 201C728.3 201 685.7 201 642.8 201C600 201 557 201 514.2 201C471.3 201 428.7 201 385.8 201C343 201 300 201 257.2 201C214.3 201 171.7 201 128.8 201C86 201 43 201 21.5 201L0 201Z" fill="#006289" stroke-linecap="round" stroke-linejoin="miter"></path></svg>