<svg id="visual" viewBox="0 0 900 200" width="900" height="200" xmlns="http://www.w3.org/2000/svg" xmlns:xlink="http://www.w3.org/1999/xlink" version="1.1"><path d="M0 85L25 90.7C50 96.3 100 107.7 150 114.7C200 121.7 250 124.3 300 123.7C350 123 400 119 450 107.7C500 96.3 550 77.7 600 80.5C650 83.3 700 107.7 750 122.5C800 137.3 850 142.7 875 145.3L900 148L900 0L875 0C850 0 800 0 750 0C700 0 650 0 600 0C550 0 500 0 450 0C400 0 350 0 300 0C250 0 200 0 150 0C100 0 50 0 25 0L0 0Z" fill="#006289" stroke-linecap="round" stroke-linejoin="miter"></path></svg>